<?xml version="1.0" standalone="no"?><!DOCTYPE svg PUBLIC "-//W3C//DTD SVG 1.1//EN" "http://www.w3.org/Graphics/SVG/1.1/DTD/svg11.dtd"><svg t="1632906732076" class="icon" viewBox="0 0 1024 1024" version="1.1" xmlns="http://www.w3.org/2000/svg" p-id="5367" xmlns:xlink="http://www.w3.org/1999/xlink" width="200" height="200"><defs><style type="text/css"></style></defs><path d="M512.015052 90.794767c102.234426 0 210.655299 86.113538 210.655299 150.386359l0 150.446568c0 57.905747-24.083493 168.689813-88.672409 219.536087-16.467088 12.974982-25.016728 33.58142-22.54817 54.398589 2.468558 20.847273 15.609114 38.864736 34.665177 47.625107l261.998295 124.240717c2.032045 0.933235 25.107041 4.801646 25.107041 37.013318l0.030104 58.763722L90.794767 933.25039l0-61.09681c0-23.932971 17.972306-31.44401 25.137145-34.75549l264.391592-124.767544c18.950698-8.700162 32.031045-26.642364 34.574864-47.339115 2.558871-20.696751-5.79509-41.242981-22.0665-54.293224-62.54182-50.214082-91.682846-160.591739-91.682846-219.370513l0-150.446568C301.164075 178.293106 410.668705 90.794767 512.015052 90.794767M512.015052 30.586036c-132.940879 0-271.059709 110.94964-271.059709 210.59509l0 150.446568c0 65.732883 29.999 198.73397 114.200911 266.318271L90.74961 782.728561c0 0-60.163575 26.807938-60.163575 60.178627l0 90.343202c0 33.250272 26.943407 60.178627 60.163575 60.178627l842.500779 0c33.250272 0 60.178627-26.928355 60.178627-60.178627l0-90.343202c0-35.387682-60.178627-60.178627-60.178627-60.178627l-261.998295-124.240717c83.404145-65.642569 111.626988-194.59462 111.626988-266.86015l0-150.446568C782.879083 141.535675 644.940879 30.586036 512.015052 30.586036L512.015052 30.586036z" p-id="5368" fill="#ffffff"></path></svg>